<svg height="368pt" viewBox="0 0 368 368" width="368pt" xmlns="http://www.w3.org/2000/svg"><path d="m328 0h-288c-22.054688 0-40 17.945312-40 40v288c0 22.054688 17.945312 40 40 40h288c22.054688 0 40-17.945312 40-40v-288c0-22.054688-17.945312-40-40-40zm-160 240h-56v-48h56c4.414062 0 8-3.585938 8-8v-48c0-30.878906 25.128906-56 56-56h56v48h-56c-4.425781 0-8 3.585938-8 8v48c0 4.414062 3.574219 8 8 8h56v48h-56c-4.425781 0-8 3.585938-8 8v104h-48v-104c0-4.414062-3.585938-8-8-8zm184 88c0 13.230469-10.769531 24-24 24h-88v-96h56c4.425781 0 8-3.585938 8-8v-64c0-4.414062-3.574219-8-8-8h-56v-32h56c4.425781 0 8-3.585938 8-8v-64c0-4.414062-3.574219-8-8-8h-64c-39.703125 0-72 32.304688-72 72v40h-56c-4.414062 0-8 3.585938-8 8v64c0 4.414062 3.585938 8 8 8h56v96h-120c-13.230469 0-24-10.769531-24-24v-288c0-13.230469 10.769531-24 24-24h288c13.230469 0 24 10.769531 24 24zm0 0"/></svg>